<?xml version="1.0" encoding="UTF-8" standalone="no"?>
<!-- Generator: Adobe Illustrator 12.0.0, SVG Export Plug-In . SVG Version: 6.00 Build 51448)  -->
<svg
   xmlns:dc="http://purl.org/dc/elements/1.1/"
   xmlns:cc="http://web.resource.org/cc/"
   xmlns:rdf="http://www.w3.org/1999/02/22-rdf-syntax-ns#"
   xmlns:svg="http://www.w3.org/2000/svg"
   xmlns="http://www.w3.org/2000/svg"
   xmlns:sodipodi="http://sodipodi.sourceforge.net/DTD/sodipodi-0.dtd"
   xmlns:inkscape="http://www.inkscape.org/namespaces/inkscape"
   version="1.0"
   id="Layer_1"
   width="330"
   height="46"
   viewBox="0 0 371.549 47.788"
   overflow="visible"
   enable-background="new 0 0 371.549 47.788"
   xml:space="preserve"
   sodipodi:version="0.32"
   inkscape:version="0.45.1"
   sodipodi:docname="hyundai_original_logo.svg"
   inkscape:output_extension="org.inkscape.output.svg.inkscape"
   sodipodi:docbase="C:\Users\Fernando\Documents\+backup!\!!!!comiccovers!"><metadata
   id="metadata2793"><rdf:RDF><cc:Work
       rdf:about=""><dc:format>image/svg+xml</dc:format><dc:type
         rdf:resource="http://purl.org/dc/dcmitype/StillImage" /></cc:Work></rdf:RDF></metadata><defs
   id="defs2791" /><sodipodi:namedview
   inkscape:window-height="706"
   inkscape:window-width="1366"
   inkscape:pageshadow="2"
   inkscape:pageopacity="0.0"
   guidetolerance="10.0"
   gridtolerance="10.0"
   objecttolerance="10.0"
   borderopacity="1.0"
   bordercolor="#666666"
   pagecolor="#ffffff"
   id="base"
   width="330px"
   height="42px"
   inkscape:zoom="1.6392559"
   inkscape:cx="314.36875"
   inkscape:cy="-8.2545613"
   inkscape:window-x="-8"
   inkscape:window-y="-8"
   inkscape:current-layer="Layer_1" />
<g
   id="g2784"
   transform="matrix(0.9665833,0,0,0.9665833,6.284994,1.2072545)">
	<path
   clip-rule="evenodd"
   d="M 347.254,12.112 L 332.045,12.112 C 329.492,12.263 328.779,12.896 328.779,15.995 L 328.779,24.538 L 347.254,24.538 L 347.254,12.112 z M 355.352,5.271 L 355.352,42.523 L 347.254,42.523 L 347.254,31.815 L 328.779,31.815 L 328.779,42.523 L 320.681,42.523 L 320.681,13.319 C 320.681,8.159 322.771,5.271 328.779,5.271 L 355.352,5.271 L 355.352,5.271 z M 312.584,13.312 L 312.584,33.472 C 312.584,39.89 308.979,42.516 304.485,42.516 L 278.942,42.516 L 278.942,5.264 L 304.485,5.264 C 311.383,5.264 312.584,9.65 312.584,13.312 z M 304.389,15.554 C 304.389,13.513 303.145,12.105 300.967,12.105 L 287.041,12.105 L 287.041,35.381 L 300.967,35.38 C 304.139,35.219 304.389,33.317 304.389,31.808 L 304.389,15.554 z M 113.868,5.264 L 121.966,5.264 L 121.966,19.947 L 140.084,19.947 L 140.084,5.264 L 148.182,5.264 L 148.182,42.515 L 140.084,42.515 L 140.084,27.313 L 121.966,27.313 L 121.966,42.515 L 113.868,42.515 L 113.868,5.264 L 113.868,5.264 z M 162.061,5.264 L 172.213,20.493 L 182.243,5.264 L 192.076,5.264 L 176.258,29.08 L 176.258,42.516 L 168.159,42.516 L 168.159,29.078 L 152.231,5.264 L 162.061,5.264 z M 237.533,5.264 L 263.629,5.264 C 267.348,5.264 270.949,5.786 270.844,13.312 L 270.844,42.516 L 262.746,42.516 L 262.746,15.988 C 262.746,12.78 262.361,12.105 259.844,12.105 L 245.633,12.105 L 245.633,42.516 L 237.533,42.516 L 237.533,5.264 L 237.533,5.264 z M 371.549,5.271 L 371.549,42.523 L 363.449,42.523 L 363.449,5.271 L 371.549,5.271 z M 196.126,42.516 L 222.22,42.516 C 227.408,42.516 229.541,41.015 229.436,33.535 L 229.436,5.264 L 221.338,5.264 L 221.338,31.857 C 221.338,35.045 220.953,35.432 218.436,35.432 L 204.225,35.432 L 204.224,5.264 L 196.126,5.264 L 196.126,42.516 L 196.126,42.516 z "
   id="path2786"
   style="fill:#006faf;fill-rule:evenodd" />
	<path
   clip-rule="evenodd"
   d="M 56.707,29.416 C 57.421,33.106 55.487,36.171 53.88,39.146 C 52.095,41.914 49.149,44.293 45.608,43.937 C 37.662,43.818 29.896,42.598 22.694,40.425 C 22.367,40.336 22.04,40.127 21.861,39.83 C 21.712,39.413 21.921,39.026 22.218,38.759 C 28.795,33.432 36.621,30.963 44.358,28.373 C 47.244,27.54 50.31,26.647 53.553,27.064 C 54.891,27.243 56.23,28.166 56.707,29.416 z M 83.816,13.645 C 87.506,16.68 90.839,20.817 89.708,25.816 C 87.863,33.196 79.829,37.124 73.431,39.623 C 69.949,40.784 66.438,41.975 62.629,42.332 C 62.391,42.302 62.004,42.361 61.944,42.004 L 62.033,41.588 C 67.449,35.487 71.555,28.644 75.157,21.71 C 76.823,18.585 78.371,15.372 79.799,12.217 C 80.007,11.979 80.216,11.86 80.454,11.771 C 81.792,11.889 82.745,12.931 83.816,13.645 z M 31.888,5.789 L 31.769,6.235 C 23.943,15.132 18.795,25.458 13.915,35.724 C 12.963,36.617 12.04,35.426 11.177,35.039 C 6.832,32.183 2.904,27.57 4.035,22.095 C 5.85,14.954 13.2,11.145 19.331,8.557 C 22.961,7.188 26.741,6.087 30.728,5.462 C 31.145,5.461 31.68,5.402 31.888,5.789 z M 70.723,7.217 C 71.169,7.455 71.705,7.544 71.973,7.99 C 72.211,8.496 71.735,8.823 71.467,9.151 C 65.307,13.971 58.255,16.65 51.053,19.001 C 47.392,19.894 43.702,21.501 39.626,20.608 C 38.673,20.37 37.811,19.745 37.275,18.822 C 36.263,16.025 37.632,13.109 38.822,10.669 C 40.399,7.604 43.197,4.003 47.065,3.944 C 55.397,3.884 63.253,5.134 70.723,7.217 z M 81.019,7.455 C 87.328,10.907 94.47,16.977 93.726,25.071 C 92.863,32.57 85.87,37.807 79.621,40.962 C 61.379,49.681 35.758,49.948 16.921,42.331 C 10.552,39.683 3.41,35.13 0.731,28.285 C -1.322,22.661 1.177,16.799 5.374,12.901 C 14.152,4.926 25.341,2.189 36.858,0.611 C 49.357,-0.907 62.509,0.432 73.698,4.271 C 76.198,5.194 78.668,6.206 81.019,7.455 z "
   id="path2788"
   style="fill:#006faf;fill-rule:evenodd" />
</g>
</svg>