<?xml version="1.0" encoding="utf-8"?>
<!-- Generator: Adobe Illustrator 21.1.0, SVG Export Plug-In . SVG Version: 6.00 Build 0)  -->
<svg version="1.1" id="Layer_1" xmlns="http://www.w3.org/2000/svg" xmlns:xlink="http://www.w3.org/1999/xlink" x="0px" y="0px"
	 viewBox="0 0 1491 420" style="enable-background:new 0 0 1491 420;" xml:space="preserve">
<style type="text/css">
	.st0{fill:#FFC332;}
</style>
<g>
	<path class="st0" d="M1178.7,89.1L1178.7,89.1C1178.7,89.1,1178.7,89.1,1178.7,89.1C1178.7,89.1,1178.7,89.1,1178.7,89.1z"/>
	<path class="st0" d="M198.8,259.5C198.8,259.5,198.8,259.5,198.8,259.5c-6.8-5.2-14.9-9.7-24.1-13.1c-9-3.4-18.8-6.4-29.4-8.9
		c-16.5-3.7-28.4-7.5-36.5-11.9c-7.2-3.9-10.7-9.7-10.7-17.7c0-4.6,1-8.4,2.9-11.4c2-3.1,4.8-5.7,8.2-7.8c3.5-2.1,7.6-3.7,12.1-4.7
		c15-3.3,30.3-1.2,42.4,5.6c6.4,3.6,11.8,8.2,16,13.4c1.6,2,4,3.3,6.6,3.5c2.6,0.3,5.1-0.6,7.1-2.2l20-16.9c4-3.4,4.5-9.4,1.2-13.5
		c-8-9.6-18.5-17.2-31.2-22.5c-24.2-10.2-52.5-12.2-77.8-5.4c-10.1,2.7-19.3,6.9-27.3,12.4c-8,5.6-14.6,13-19.6,21.8
		c-5,8.9-7.6,19.5-7.6,31.7c0,10.6,2.1,19.7,6.2,27.1c4,7.3,9.3,13.4,15.8,18.3c6.4,4.8,13.6,8.6,21.3,11.3
		c7.6,2.6,15.1,4.9,22.7,6.8c18.4,4.2,32.4,8.8,41.8,13.5c8.6,4.4,12.8,10.8,12.8,19.7c0,5.5-1.1,10.1-3.2,13.5
		c-2.2,3.5-5.1,6.4-8.8,8.6c-3.8,2.3-8.1,3.9-12.8,4.9c-4.8,1-9.9,1.5-15.2,1.5c-11.7,0-22.5-2.8-32.3-8.3
		c-7.8-4.4-14.3-9.7-19.4-15.8c-1.6-2-4-3.2-6.5-3.4c-2.5-0.2-5.1,0.6-7,2.3l-20.8,17.7c-2,1.7-3.2,4.1-3.4,6.7
		c-0.2,2.6,0.7,5.1,2.5,7.1c10,11,22.2,19.5,36.3,25.2c16.1,6.6,32.9,9.9,49.8,9.9c11.2,0,22.3-1.3,33-3.8
		c10.8-2.5,20.5-6.8,28.9-12.7c8.5-5.9,15.4-13.7,20.5-22.9c5.2-9.3,7.8-20.9,7.8-34.2c0-10-2-18.8-5.9-26.3
		C211.2,271.3,205.7,264.8,198.8,259.5z"/>
	<path class="st0" d="M741.6,176.3C741.6,176.3,741.6,176.3,741.6,176.3c-9.9-10.7-21.8-19.2-35.5-25.2c-13.7-6-29-9-45.6-9
		c-18.5,0-34.8,3.9-48.4,11.7c-8.4,4.8-15.8,10.3-21.9,16.5c-0.9,0.9-2.3,1.2-3.5,0.7c-1.2-0.5-2-1.7-2-3V53.5
		c0-5.3-4.3-9.6-9.6-9.6h-30.5c-5.3,0-9.6,4.3-9.6,9.6v309.6c0,5.3,4.3,9.6,9.6,9.6h29.1c5.3,0,9.6-4.3,9.6-9.6v-10.9
		c0-1.3,0.8-2.5,2-3c1.2-0.5,2.6-0.2,3.5,0.8c7.1,7.4,15.4,13.4,24.8,18c14.4,7.1,29.9,10.7,45.9,10.7c17.2,0,32.9-3.1,46.8-9.2
		c13.8-6.1,25.8-14.7,35.5-25.4c9.7-10.7,17.3-23.4,22.7-37.9c5.3-14.4,8-30,8-46.2c0-16.3-2.7-31.7-8-46
		C759.2,199.6,751.5,187,741.6,176.3z M717.5,288.6c-2.9,9.1-7.4,17.2-13.2,24.2c-5.8,7-13.2,12.6-21.7,16.9
		c-8.6,4.2-18.7,6.3-30.1,6.3c-10.5,0-20.2-2.1-28.8-6.1c-8.6-4.1-16.1-9.6-22.2-16.5c-6.2-6.9-11-14.9-14.3-24
		c-3.4-9.1-5.1-18.8-5.1-28.7c0-10,1.7-19.6,5.1-28.7c3.4-9.1,8.2-17.2,14.4-24.3c6.1-7,13.6-12.6,22.2-16.7
		c8.6-4.1,18.2-6.1,28.8-6.1c11.4,0,21.6,2.1,30.2,6.1c8.6,4.1,15.9,9.6,21.7,16.6c5.8,7,10.3,15.1,13.2,24.2
		c3,9.1,4.5,18.7,4.5,28.4C722,269.9,720.5,279.4,717.5,288.6z"/>
	<path class="st0" d="M477.9,146.2h-30.5c-5.3,0-9.6,4.3-9.6,9.6V168c0,1.3-0.8,2.5-2,3c-1.2,0.5-2.6,0.2-3.5-0.7
		c-6.1-6.1-13.5-11.7-21.9-16.5c-13.6-7.8-29.9-11.7-48.4-11.7c-16.6,0-31.9,3-45.6,9c-13.7,6-25.6,14.5-35.5,25.2
		c-9.9,10.7-17.6,23.3-22.9,37.6c-5.3,14.3-8,29.7-8,46c0,16.3,2.7,31.8,8,46.2c5.3,14.5,13,27.2,22.7,37.9
		c9.7,10.7,21.7,19.3,35.5,25.4c13.8,6.1,29.5,9.2,46.8,9.2c16,0,31.5-3.6,46-10.7c9.4-4.6,17.7-10.7,24.8-18
		c0.9-0.9,2.3-1.3,3.5-0.7c1.2,0.5,2,1.6,2,3v10.9c0,5.3,4.3,9.6,9.6,9.6h29.1c5.3,0,9.6-4.3,9.6-9.6V155.8
		C487.5,150.5,483.2,146.2,477.9,146.2z M435.5,289.4c-3.4,9.1-8.2,17.1-14.3,24c-6.1,6.9-13.6,12.4-22.2,16.5
		c-8.6,4.1-18.2,6.1-28.8,6.1c-11.4,0-21.6-2.1-30.1-6.3c-8.6-4.2-15.9-9.9-21.7-16.8c-5.8-7-10.3-15.1-13.2-24.2
		c-3-9.1-4.4-18.7-4.4-28.4s1.5-19.3,4.4-28.4c2.9-9,7.4-17.2,13.2-24.2c5.8-6.9,13.1-12.5,21.7-16.6c8.6-4.1,18.7-6.1,30.2-6.1
		c10.5,0,20.2,2.1,28.8,6.1c8.6,4.1,16.1,9.7,22.2,16.6c6.2,7,11,15.2,14.4,24.2c3.4,9.1,5.1,18.8,5.1,28.7
		C440.6,270.6,438.9,280.3,435.5,289.4z"/>
	<path class="st0" d="M849.5,148.1h-30.5c-5.3,0-9.6,4.3-9.6,9.6v205.4c0,5.3,4.3,9.6,9.6,9.6h30.5c5.3,0,9.6-4.3,9.6-9.6V157.7
		C859.1,152.4,854.8,148.1,849.5,148.1z"/>
	<path class="st0" d="M834.1,41.3c-8.7,0-16.2,3-22.3,9c-6.2,6.1-9.2,13.4-9.2,22.3c0,8.7,3,15.8,9.2,21.8c6.1,6,13.6,9,22.3,9
		c8.7,0,16.3-2.9,22.5-8.7c6.3-5.8,9.5-13.3,9.5-22.1c0-9-3.1-16.3-9.4-22.3C850.4,44.3,842.8,41.3,834.1,41.3z"/>
	<path class="st0" d="M1102.8,175.2c-10.8-10.3-23.8-18.5-38.5-24.4c-14.8-5.8-30.8-8.7-47.7-8.7c-16.9,0-32.9,2.9-47.7,8.7
		c-14.8,5.8-27.7,14-38.3,24.4c-10.7,10.4-19.2,22.9-25.3,37.2c-6.1,14.3-9.2,30.3-9.2,47.5c0,17.2,3.1,33.3,9.2,47.7
		s14.7,27.1,25.3,37.6c10.7,10.5,23.6,18.8,38.4,24.6c14.7,5.8,30.8,8.7,47.7,8.7c16.9,0,32.9-2.9,47.7-8.7
		c14.7-5.8,27.7-14.1,38.6-24.6c10.9-10.5,19.5-23.2,25.6-37.6c6.1-14.4,9.2-30.5,9.2-47.7c0-17.2-3.1-33.2-9.2-47.5
		C1122.3,198.1,1113.7,185.6,1102.8,175.2z M1081.5,289c-3.1,9.1-7.6,17.2-13.5,24.2c-5.8,6.9-13.1,12.5-21.8,16.6
		c-8.6,4.1-18.6,6.1-29.8,6.1c-11.2,0-21.2-2.1-29.8-6.1c-8.6-4.1-15.9-9.6-21.8-16.6c-5.9-7-10.4-15.2-13.5-24.2
		c-3.1-9.1-4.7-18.8-4.7-28.8c0-10,1.6-19.7,4.7-28.8c3.1-9,7.6-17.1,13.5-24c5.8-6.8,13.2-12.3,21.8-16.4
		c8.6-4.1,18.6-6.1,29.8-6.1c11.2,0,21.2,2.1,29.8,6.1c8.6,4.1,16,9.6,21.8,16.4c5.8,6.8,10.4,14.9,13.5,23.9
		c3.1,9.1,4.7,18.8,4.7,28.8C1086.2,270.2,1084.6,279.9,1081.5,289z"/>
	<path class="st0" d="M1259.5,186.2c6.1,7,16.8,24.4,22.1,24.4c5.4,0,15.8-17.6,21.3-24.5c0.8-1.2,2.6-2.3,2.6-2.3
		c1.5-0.8,2.5-1,3.9-1.2c33.3-4,57.2-10.4,58.8-47.1c0.1-0.9,0.1-1.9,0.1-2.8c0-0.1,0-0.3,0-0.4c-0.2-25.4-20.9-45.9-46.3-45.9
		c-13.1,0-24.8,5.4-33.3,14.1c-2.7,2.8-6,3.1-7.1,3.1c-1.3,0-4.4-0.4-7.2-3.2c-8.4-8.6-20.1-13.9-33.1-13.9
		c-25.4,0-46.1,20.5-46.3,45.9c0,0.1,0,0.3,0,0.4c0,0.9,0,1.9,0.1,2.8c1.5,36.1,24.9,42.9,57.3,47c1.5,0.2,3,0.5,4.4,1.3
		C1256.8,183.9,1258.6,184.9,1259.5,186.2z M1322.3,116.1c10.4,0,18.9,8.5,18.9,18.9c0,10.4-8.5,18.9-18.9,18.9
		c-10.4,0-18.9-8.5-18.9-18.9C1303.4,124.5,1311.9,116.1,1322.3,116.1z M1240.7,153.9c-10.4,0-18.9-8.5-18.9-18.9
		c0-10.4,8.5-18.9,18.9-18.9c10.4,0,18.9,8.5,18.9,18.9C1259.6,145.4,1251.1,153.9,1240.7,153.9z"/>
	<path class="st0" d="M1242.8,257l-27.6-35.9c0,0,0-0.1-0.1-0.1l-0.4-0.5l0,0c-0.1-0.1-0.2-0.2-0.3-0.3c-0.4-0.5-0.9-1-1.4-1.5
		c-3-2.8-6.6-4.3-10.8-4.3c-4.2,0-7.8,1.4-10.7,4.3c-2.6,2.6-4,5.6-4.3,9.2c0,0,0,0,0,0.1l0,0c0,0.4-0.1,0.8-0.1,1.3c0,0,0,0,0,0
		c0,0,0,0,0,0.1c0,0,0,0,0,0.1c0,2,0.3,3.8,1,5.5l0,0c0,0,0,0,0,0.1c0,0.1,0.1,0.2,0.1,0.3c0.8,1.9,4.7,11.9,5,30.7
		c0.3,17.1-3.7,27.3-5.1,30.6c0,0,0,0,0,0.1c0,0,0,0.1-0.1,0.2c0,0,0,0,0,0c-0.7,1.7-1,3.6-1,5.7c0,0.1,0,0.2,0,0.2c0,0,0,0.1,0,0.1
		c0,0,0,0.1,0,0.1c0.1,3.9,1.5,7.2,4.4,10c2.9,2.9,6.5,4.3,10.7,4.3c0.1,0,0.1,0,0.2,0c0,0,0,0,0,0c0.2,0,0.5,0,0.7,0
		c0.2,0,0.5,0,0.7,0c0.4,0,0.9-0.1,1.3-0.2c0,0,0.1,0,0.1,0c3.8-0.7,7.2-2.6,9.4-5.4l0,0l0.4-0.5c0,0,0-0.1,0.1-0.1l28.1-37
		c1.7-2.3,2.8-5.1,2.8-8.2C1246.2,262.5,1244.9,259.5,1242.8,257L1242.8,257z"/>
	<path class="st0" d="M1448.2,49.7c-0.9-3.2-3.3-5.7-6.6-6.6c-0.5-0.3-1.2-0.5-2.5-0.5H1343c0,0-1.6-0.1-2.3,1.5
		c-0.6,1.5,0.3,2.6,0.9,3c27.6,19.3,45.8,51.2,45.8,87.5c0,25.2-10.1,47.1-23.3,66.5l-15.8,22.3L1256,353.9c0,0-3.5,4.4-0.4,10.1
		c3,5.1,8.3,4.8,8.3,4.8h175.3c1.3,0,2-0.2,2.5-0.5c3.2-0.9,5.7-3.3,6.6-6.6c0.3-0.5,0.5-1.2,0.5-2.5V52.2
		C1448.7,50.9,1448.5,50.3,1448.2,49.7z"/>
	<line class="st0" x1="1178.7" y1="89.1" x2="1178.7" y2="89.2"/>
	<line class="st0" x1="1178.7" y1="89.1" x2="1178.7" y2="89.1"/>
	<path class="st0" d="M1183.5,90.1c8-17.3,20.4-32,35.8-42.8c0.8-0.6,1.3-1.8,0.9-2.9c-0.7-1.8-2.4-1.7-2.4-1.7h-29.3c0,0,0,0,0,0
		c0,0,0,0,0,0h-0.3c0,0,0,0,0,0c-2.6,0.1-4.8,1-6.7,2.8c-1.9,1.8-2.8,4-2.9,6.7c0,0,0,0,0,0v0.2c0,0,0,0,0,0s0,0,0,0V89v0
		c0,0,0,0,0,0.1c0,0,0,0,0,0c0,0,0,0,0,0c0,0,0,0,0,0c0,0,0,0,0,0c0,0,0,0,0,0c0,0,0,0.1,0,0.2c0,0.6,0.3,1.1,0.7,1.5
		c0.5,0.5,1.1,0.7,1.8,0.7c0,0,0,0,0,0c0,0,0,0,0,0c0,0,0,0,0,0c0.7,0,1.2-0.2,1.7-0.7C1183.2,90.6,1183.4,90.4,1183.5,90.1z"/>
</g>
</svg>
